HIERARCHY
ROOT SimulationBone
{
	OFFSET 0.000000 0.000000 0.000000
	CHANNELS 6 Xposition Yposition Zposition Zrotation Yrotation Xrotation 
	JOINT Hips
	{
		OFFSET 0.000000 0.000000 0.000000
		CHANNELS 6 Xposition Yposition Zposition Zrotation Yrotation Xrotation 
		JOINT RightUpLeg
		{
			OFFSET 0.103459 1.857829 10.548508
			CHANNELS 3 Zrotation Yrotation Xrotation
			JOINT RightLeg
			{
				OFFSET 43.500000 -0.000031 -0.000004
				CHANNELS 3 Zrotation Yrotation Xrotation
				JOINT RightFoot
				{
					OFFSET 42.372200 0.000019 0.000005
					CHANNELS 3 Zrotation Yrotation Xrotation
					JOINT RightToe
					{
						OFFSET 17.299999 -0.000000 -0.000005
						CHANNELS 3 Zrotation Yrotation Xrotation
						End Site
						{
							OFFSET 0.000000 0.000000 0.000000
						}
					}
				}
			}
		}
		JOINT LeftUpLeg
		{
			OFFSET 0.103458 1.857828 -10.548506
			CHANNELS 3 Zrotation Yrotation Xrotation
			JOINT LeftLeg
			{
				OFFSET 43.500042 -0.000023 0.000011
				CHANNELS 3 Zrotation Yrotation Xrotation
				JOINT LeftFoot
				{
					OFFSET 42.372261 -0.000008 0.000008
					CHANNELS 3 Zrotation Yrotation Xrotation
					JOINT LeftToe
					{
						OFFSET 17.299994 -0.000005 0.000010
						CHANNELS 3 Zrotation Yrotation Xrotation
						End Site
						{
							OFFSET 0.000000 0.000000 0.000000
						}
					}
				}
			}
		}
		JOINT Spine
		{
			OFFSET 6.901963 -2.603731 0.000002
			CHANNELS 3 Zrotation Yrotation Xrotation
			JOINT Spine1
			{
				OFFSET 12.588100 0.000001 -0.000005
				CHANNELS 3 Zrotation Yrotation Xrotation
				JOINT Spine2
				{
					OFFSET 12.343208 0.000002 0.000006
					CHANNELS 3 Zrotation Yrotation Xrotation
					JOINT Neck
					{
						OFFSET 25.832893 -0.000004 -0.000005
						CHANNELS 3 Zrotation Yrotation Xrotation
						JOINT Head
						{
							OFFSET 11.766604 0.000010 0.000000
							CHANNELS 3 Zrotation Yrotation Xrotation
							End Site
							{
								OFFSET 0.000000 0.000000 0.000000
							}
						}
					}
					JOINT RightShoulder
					{
						OFFSET 19.745903 -1.480368 6.000098
						CHANNELS 3 Zrotation Yrotation Xrotation
						JOINT RightArm
						{
							OFFSET 11.284134 -0.000007 -0.000016
							CHANNELS 3 Zrotation Yrotation Xrotation
							JOINT RightForeArm
							{
								OFFSET 33.000050 0.000005 0.000015
								CHANNELS 3 Zrotation Yrotation Xrotation
								JOINT RightHand
								{
									OFFSET 25.200003 0.000014 0.000010
									CHANNELS 3 Zrotation Yrotation Xrotation
									End Site
									{
										OFFSET 0.000000 0.000000 0.000000
									}
								}
							}
						}
					}
					JOINT LeftShoulder
					{
						OFFSET 19.746094 -1.480373 -6.000076
						CHANNELS 3 Zrotation Yrotation Xrotation
						JOINT LeftArm
						{
							OFFSET 11.284140 -0.000016 -0.000005
							CHANNELS 3 Zrotation Yrotation Xrotation
							JOINT LeftForeArm
							{
								OFFSET 33.000092 0.000015 0.000005
								CHANNELS 3 Zrotation Yrotation Xrotation
								JOINT LeftHand
								{
									OFFSET 25.199781 0.000140 0.000422
									CHANNELS 3 Zrotation Yrotation Xrotation
									End Site
									{
										OFFSET 0.000000 0.000000 0.000000
									}
								}
							}
						}
					}
				}
			}
		}
	}
}
MOTION
Frames: 10
Frame Time: 0.033333
101.850553 0.000000 8.348979 0.000000 87.857508 0.000000 0.726018 90.796043 -0.226455 96.670813 -1.679150 176.097805 172.173892 3.345396 169.979257 -23.044949 -3.611534 -18.798948 81.904739 13.099813 -0.215456 21.454557 0.003107 0.000016 169.902335 17.552387 -171.723564 -64.800429 -3.440668 4.275323 75.856914 0.378193 11.635459 21.454560 -0.003103 -0.000000 8.900679 -1.700655 0.263320 7.785792 -3.415063 0.411931 7.467086 -3.412644 0.432561 -10.409711 -0.068220 3.311601 -4.002976 3.579784 2.316009 140.380140 -75.261786 39.066411 -6.566051 58.959559 27.735549 -42.319937 -15.711151 1.595141 11.613843 -16.157335 14.661773 161.027515 76.634408 -17.948998 -35.149448 -57.154992 -35.127823 -47.728498 12.825854 -1.534438 4.223520 15.894301 -21.103743 
101.178479 0.000000 6.949522 0.000000 87.981991 0.000000 0.609097 90.820122 -0.085883 96.452596 -1.690413 176.134029 172.826148 3.894601 170.356884 -22.887093 -3.605802 -18.962294 82.671442 13.159203 -0.297827 21.454557 0.003106 0.000016 167.947767 17.320089 -171.953154 -62.710822 -3.437608 4.944921 76.675827 -0.260154 11.388898 21.454548 -0.003094 0.000003 8.838763 -1.715687 0.181528 7.664382 -3.439508 0.249289 7.345656 -3.438081 0.270075 -10.489291 0.153419 3.220705 -3.688848 3.483991 2.339715 140.157995 -74.986489 39.313220 -7.707925 58.458476 27.077394 -41.466690 -15.686177 1.569899 11.674054 -15.803839 14.936674 160.425284 76.635679 -18.562642 -35.306829 -57.597346 -36.209196 -47.496316 12.923752 -1.533845 4.684895 16.317361 -21.086802 
100.589436 0.000000 5.583207 0.000000 88.213998 0.000000 0.491115 90.703194 0.071090 96.260306 -1.922930 175.912476 173.262297 4.596897 170.771436 -23.132509 -3.596593 -19.252312 83.557713 13.262245 -0.550353 21.454560 0.003114 0.000019 166.348274 17.114402 -172.481524 -58.964688 -3.429741 4.932853 78.406330 -0.369936 11.635298 21.454553 -0.003090 0.000004 8.779031 -1.778013 0.149015 7.546021 -3.561841 0.182017 7.227243 -3.560809 0.203543 -10.635759 0.351607 3.078950 -3.381326 3.369778 2.309350 140.373010 -74.540429 39.129604 -8.570573 57.783332 26.467007 -40.880506 -15.650976 1.551657 11.733483 -15.640998 14.912653 159.709275 76.457711 -19.301527 -34.861876 -57.615064 -36.941345 -47.073479 12.848110 -1.515978 5.444576 15.870160 -20.967542 
100.081060 0.000000 4.245943 0.000000 88.534330 0.000000 0.412189 90.560371 0.218070 96.113096 -2.139150 175.687762 173.705467 5.178807 170.608495 -23.535937 -3.465823 -19.149501 84.515545 13.107425 -0.755724 21.454558 0.003115 0.000018 165.174246 16.806188 -172.815916 -54.069601 -3.316965 4.885499 80.042181 -0.536687 11.548602 21.454553 -0.003093 0.000000 8.749128 -1.834415 0.136938 7.486746 -3.673732 0.155152 7.167941 -3.672874 0.177373 -11.265799 0.624143 2.946636 -2.786743 3.211535 2.331654 140.599089 -74.033834 38.939223 -9.498619 57.034439 25.788247 -40.437636 -15.619365 1.537694 11.974753 -15.588469 14.557918 158.978527 76.172086 -20.061249 -33.903372 -57.234076 -36.959431 -47.049150 12.768779 -1.509981 5.649178 15.458105 -19.246823 
99.657703 0.000000 2.931492 0.000000 88.922777 0.000000 0.375927 90.533058 0.341394 96.087474 -2.026099 175.685643 174.489176 5.373895 170.475361 -23.627255 -3.388098 -18.837607 85.348719 12.851415 -0.828035 21.454557 0.003110 0.000016 164.691598 16.137498 -172.105044 -48.151830 -3.347814 4.639214 80.342723 -0.604608 10.718685 21.454553 -0.003093 -0.000001 8.778311 -1.807572 0.113835 7.545781 -3.618613 0.109782 7.226989 -3.618020 0.131653 -12.063444 0.702476 2.880031 -2.147339 3.226809 2.307594 140.641586 -73.641419 38.926522 -10.698674 56.437102 24.790699 -40.046045 -15.550220 1.522770 12.023850 -15.667768 14.469465 157.462225 75.762323 -21.629401 -32.180272 -56.498331 -36.819364 -48.113779 12.787438 -1.543738 6.454014 14.339053 -18.165882 
99.325154 0.000000 1.630470 0.000000 89.361285 0.000000 0.356282 90.513748 0.451443 96.167909 -1.843200 175.829586 175.416183 5.425909 170.526874 -23.684002 -3.390250 -18.492749 86.149586 12.581278 -0.885083 21.454558 0.003111 0.000017 164.683893 15.349501 -171.581264 -41.829994 -2.891386 4.300111 79.695665 -0.492107 10.077383 21.454555 -0.003094 0.000001 8.856271 -1.758844 0.107885 7.701815 -3.520861 0.098663 7.383055 -3.520336 0.119952 -12.803055 0.793445 2.763797 -1.783514 3.234225 2.237554 140.002991 -73.243663 39.607010 -11.926177 55.929171 23.705580 -39.716464 -15.519571 1.512090 12.065860 -15.632927 14.436100 156.537185 75.091421 -22.610458 -29.634415 -55.096722 -36.957997 -50.614628 12.640915 -1.612874 7.579158 11.595167 -18.142700 
99.092349 0.000000 0.333475 0.000000 89.838020 0.000000 0.315940 90.510529 0.499108 96.197501 -1.680191 176.092238 176.344064 5.487793 170.899994 -23.585634 -3.435611 -18.242704 86.840944 12.381886 -0.947716 21.454555 0.003112 0.000016 164.808817 14.601191 -171.545146 -35.503375 -1.822981 3.682108 78.502205 -0.093678 9.675170 21.454548 -0.003081 0.000002 8.934663 -1.692723 0.102962 7.858565 -3.388437 0.090906 7.539862 -3.387951 0.111386 -13.571373 0.798081 2.675574 -1.484793 3.249345 2.159046 139.427711 -72.858850 40.222502 -13.199126 55.412061 22.992971 -39.375081 -15.601895 1.508527 12.046043 -15.498073 14.174220 156.060288 74.370242 -23.138941 -26.874325 -53.467250 -37.376182 -53.690338 12.450320 -1.701770 8.592632 8.148549 -18.813650 
98.961720 0.000000 -0.965631 180.000000 89.656638 180.000000 0.260414 90.592323 0.444351 96.116374 -1.483229 176.534089 177.396610 5.549194 171.411069 -22.983950 -3.420512 -17.951865 87.288964 12.179712 -0.929414 21.454558 0.003106 0.000016 164.888813 13.845789 -171.621958 -29.530647 -0.576668 2.832490 76.072441 0.684788 9.689125 21.454553 -0.003105 -0.000002 8.993713 -1.590701 0.087604 7.976745 -3.183549 0.065474 7.658111 -3.183231 0.084718 -14.381928 0.593243 2.632386 -1.161708 3.347738 2.023573 139.387099 -72.471080 40.294482 -14.365599 54.881970 22.241287 -39.300253 -15.626720 1.508202 11.903462 -15.395919 14.503476 155.451718 73.908937 -23.787310 -24.300070 -52.060354 -37.670559 -56.906066 12.197763 -1.796189 9.631265 4.757731 -20.020861 
98.916281 0.000000 -2.271544 180.000000 89.116082 180.000000 0.151804 90.697197 0.336253 95.896566 -1.294128 177.080247 178.347659 5.578285 171.986622 -22.241809 -3.371532 -17.628223 87.621259 11.962748 -0.896274 21.454557 0.003113 0.000018 164.748029 13.016402 -171.636630 -24.269880 0.602308 1.882107 73.162555 1.851287 10.536581 21.454550 -0.003085 0.000000 9.023681 -1.482164 0.066502 8.036824 -2.965269 0.030014 7.718264 -2.965186 0.047941 -15.198720 0.277187 2.570325 -0.834017 3.611070 1.788367 139.334411 -72.250246 40.365721 -15.344768 54.558062 21.439810 -39.634013 -15.732712 1.523812 11.584209 -15.313388 15.345227 155.063626 73.561219 -24.204536 -22.084768 -50.831620 -37.630606 -59.867728 11.863730 -1.880532 10.278039 2.601592 -20.778991 
98.941470 0.000000 -3.581846 180.000000 88.514440 180.000000 -0.000911 90.758408 0.211394 95.605966 -1.250039 177.623004 179.121465 5.681102 172.535250 -21.645426 -3.282896 -17.263867 87.931500 11.708491 -0.924377 21.454558 0.003106 0.000016 164.424974 12.318207 -171.525448 -19.984375 1.673939 1.089212 71.139624 3.071861 11.980918 21.454551 -0.003096 0.000000 9.034522 -1.402871 0.035019 8.058937 -2.804668 -0.027648 7.740428 -2.804932 -0.010692 -15.837800 0.160957 2.467726 -0.852804 3.672865 1.627345 139.499907 -72.044897 40.213487 -15.930658 54.184782 21.107769 -40.315646 -15.846918 1.549282 11.249842 -15.512586 15.860003 154.726188 73.269236 -24.566727 -20.155834 -49.958763 -37.013249 -62.311563 11.574769 -1.952036 10.978376 0.852252 -21.504084 
